<svg width="38" height="37" viewBox="0 0 38 37" fill="none" xmlns="http://www.w3.org/2000/svg">
<g clip-path="url(#clip0_203_239)">
<path fill-rule="evenodd" clip-rule="evenodd" d="M19 0C8.50725 0 0 8.28337 0 18.5C0 28.7166 8.50725 37 19 37C29.4928 37 38 28.7166 38 18.5C38 8.28337 29.4928 0 19 0ZM27.8065 12.5815C27.5215 15.5061 26.2833 22.6055 25.6547 25.8815C25.3888 27.269 24.8631 27.733 24.3564 27.7777C23.2528 27.8764 22.4153 27.067 21.3465 26.3856C19.6745 25.3188 18.7292 24.6543 17.1063 23.6122C15.2301 22.4081 16.4461 21.7467 17.5148 20.666C17.7951 20.3824 22.6559 16.0765 22.7509 15.6865C22.762 15.6371 22.7747 15.4552 22.6623 15.3596C22.5498 15.264 22.3867 15.2964 22.2696 15.3226C22.1017 15.3596 19.4307 17.0786 14.2548 20.4795C13.4963 20.9867 12.8092 21.2334 12.1933 21.221C11.5156 21.2072 10.2109 20.848 9.24033 20.5396C8.05125 20.1635 7.10442 19.963 7.18675 19.3248C7.2295 18.9918 7.69975 18.6511 8.59908 18.3027C14.1376 15.9532 17.8315 14.4038 19.6793 13.6545C24.9565 11.5178 26.0522 11.1462 26.7678 11.1339C27.664 11.1216 27.8793 11.8415 27.8065 12.5815Z" fill="white"/>
</g>
<defs>
<clipPath id="clip0_203_239">
<path d="M0 19C0 8.50659 8.50659 0 19 0C29.4934 0 38 8.50659 38 19V37H0V19Z" fill="white"/>
</clipPath>
</defs>
</svg>
